<svg width="118" height="116" viewBox="0 0 118 116" fill="none" xmlns="http://www.w3.org/2000/svg">
<g filter="url(#filter0_d_3:61)">
<rect x="16" y="12" width="86" height="84" rx="6" fill="white"/>
</g>
<path d="M41.6742 70.8961V71.6791H37.1022V65.3791H41.5482V66.1621H38.0022V68.0971H41.1612V68.8621H38.0022V70.8961H41.6742ZM48.9725 66.8641C49.5725 66.8641 50.0465 67.0381 50.3945 67.3861C50.7485 67.7341 50.9255 68.2501 50.9255 68.9341V71.6791H50.0615V69.0331C50.0615 68.5711 49.9535 68.2231 49.7375 67.9891C49.5275 67.7551 49.2245 67.6381 48.8285 67.6381C48.3905 67.6381 48.0425 67.7761 47.7845 68.0521C47.5265 68.3221 47.3975 68.7121 47.3975 69.2221V71.6791H46.5335V69.0331C46.5335 68.5711 46.4255 68.2231 46.2095 67.9891C45.9995 67.7551 45.6965 67.6381 45.3005 67.6381C44.8625 67.6381 44.5145 67.7761 44.2565 68.0521C43.9985 68.3221 43.8695 68.7121 43.8695 69.2221V71.6791H43.0055V66.9091H43.8335V67.6201C44.0075 67.3741 44.2355 67.1881 44.5175 67.0621C44.7995 66.9301 45.1205 66.8641 45.4805 66.8641C45.8525 66.8641 46.1825 66.9391 46.4705 67.0891C46.7585 67.2391 46.9805 67.4581 47.1365 67.7461C47.3165 67.4701 47.5655 67.2541 47.8835 67.0981C48.2075 66.9421 48.5705 66.8641 48.9725 66.8641ZM55.0443 66.8641C55.5063 66.8641 55.9203 66.9661 56.2863 67.1701C56.6523 67.3741 56.9373 67.6591 57.1413 68.0251C57.3513 68.3911 57.4563 68.8141 57.4563 69.2941C57.4563 69.7741 57.3513 70.2001 57.1413 70.5721C56.9373 70.9381 56.6523 71.2231 56.2863 71.4271C55.9203 71.6311 55.5063 71.7331 55.0443 71.7331C54.7023 71.7331 54.3873 71.6671 54.0993 71.5351C53.8173 71.4031 53.5773 71.2111 53.3793 70.9591V73.4251H52.5153V66.9091H53.3433V67.6651C53.5353 67.4011 53.7783 67.2031 54.0723 67.0711C54.3663 66.9331 54.6903 66.8641 55.0443 66.8641ZM54.9723 70.9771C55.2783 70.9771 55.5513 70.9081 55.7913 70.7701C56.0373 70.6261 56.2293 70.4281 56.3673 70.1761C56.5113 69.9181 56.5833 69.6241 56.5833 69.2941C56.5833 68.9641 56.5113 68.6731 56.3673 68.4211C56.2293 68.1631 56.0373 67.9651 55.7913 67.8271C55.5513 67.6891 55.2783 67.6201 54.9723 67.6201C54.6723 67.6201 54.3993 67.6921 54.1533 67.8361C53.9133 67.9741 53.7213 68.1691 53.5773 68.4211C53.4393 68.6731 53.3703 68.9641 53.3703 69.2941C53.3703 69.6241 53.4393 69.9181 53.5773 70.1761C53.7153 70.4281 53.9073 70.6261 54.1533 70.7701C54.3993 70.9081 54.6723 70.9771 54.9723 70.9771ZM58.6501 65.0011H59.5141V71.6791H58.6501V65.0011ZM63.2067 71.7331C62.7327 71.7331 62.3067 71.6281 61.9287 71.4181C61.5507 71.2081 61.2537 70.9201 61.0377 70.5541C60.8277 70.1821 60.7227 69.7621 60.7227 69.2941C60.7227 68.8261 60.8277 68.4091 61.0377 68.0431C61.2537 67.6711 61.5507 67.3831 61.9287 67.1791C62.3067 66.9691 62.7327 66.8641 63.2067 66.8641C63.6807 66.8641 64.1037 66.9691 64.4757 67.1791C64.8537 67.3831 65.1477 67.6711 65.3577 68.0431C65.5737 68.4091 65.6817 68.8261 65.6817 69.2941C65.6817 69.7621 65.5737 70.1821 65.3577 70.5541C65.1477 70.9201 64.8537 71.2081 64.4757 71.4181C64.1037 71.6281 63.6807 71.7331 63.2067 71.7331ZM63.2067 70.9771C63.5127 70.9771 63.7857 70.9081 64.0257 70.7701C64.2717 70.6261 64.4637 70.4281 64.6017 70.1761C64.7397 69.9181 64.8087 69.6241 64.8087 69.2941C64.8087 68.9641 64.7397 68.6731 64.6017 68.4211C64.4637 68.1631 64.2717 67.9651 64.0257 67.8271C63.7857 67.6891 63.5127 67.6201 63.2067 67.6201C62.9007 67.6201 62.6247 67.6891 62.3787 67.8271C62.1387 67.9651 61.9467 68.1631 61.8027 68.4211C61.6647 68.6731 61.5957 68.9641 61.5957 69.2941C61.5957 69.6241 61.6647 69.9181 61.8027 70.1761C61.9467 70.4281 62.1387 70.6261 62.3787 70.7701C62.6247 70.9081 62.9007 70.9771 63.2067 70.9771ZM70.9658 66.9091L68.6528 72.1561C68.4488 72.6421 68.2088 72.9841 67.9328 73.1821C67.6628 73.3801 67.3358 73.4791 66.9518 73.4791C66.7178 73.4791 66.4898 73.4401 66.2678 73.3621C66.0518 73.2901 65.8718 73.1821 65.7278 73.0381L66.0968 72.3901C66.3428 72.6241 66.6278 72.7411 66.9518 72.7411C67.1618 72.7411 67.3358 72.6841 67.4738 72.5701C67.6178 72.4621 67.7468 72.2731 67.8608 72.0031L68.0138 71.6701L65.9078 66.9091H66.8078L68.4728 70.7251L70.1198 66.9091H70.9658ZM75.9513 69.3211C75.9513 69.3871 75.9453 69.4741 75.9333 69.5821H72.0633C72.1173 70.0021 72.3003 70.3411 72.6123 70.5991C72.9303 70.8511 73.3233 70.9771 73.7913 70.9771C74.3613 70.9771 74.8203 70.7851 75.1683 70.4011L75.6453 70.9591C75.4293 71.2111 75.1593 71.4031 74.8353 71.5351C74.5173 71.6671 74.1603 71.7331 73.7643 71.7331C73.2603 71.7331 72.8133 71.6311 72.4233 71.4271C72.0333 71.2171 71.7303 70.9261 71.5143 70.5541C71.3043 70.1821 71.1993 69.7621 71.1993 69.2941C71.1993 68.8321 71.3013 68.4151 71.5053 68.0431C71.7153 67.6711 72.0003 67.3831 72.3603 67.1791C72.7263 66.9691 73.1373 66.8641 73.5933 66.8641C74.0493 66.8641 74.4543 66.9691 74.8083 67.1791C75.1683 67.3831 75.4473 67.6711 75.6453 68.0431C75.8493 68.4151 75.9513 68.8411 75.9513 69.3211ZM73.5933 67.5931C73.1793 67.5931 72.8313 67.7191 72.5493 67.9711C72.2733 68.2231 72.1113 68.5531 72.0633 68.9611H75.1233C75.0753 68.5591 74.9103 68.2321 74.6283 67.9801C74.3523 67.7221 74.0073 67.5931 73.5933 67.5931ZM81.462 69.3211C81.462 69.3871 81.456 69.4741 81.444 69.5821H77.574C77.628 70.0021 77.811 70.3411 78.123 70.5991C78.441 70.8511 78.834 70.9771 79.302 70.9771C79.872 70.9771 80.331 70.7851 80.679 70.4011L81.156 70.9591C80.94 71.2111 80.67 71.4031 80.346 71.5351C80.028 71.6671 79.671 71.7331 79.275 71.7331C78.771 71.7331 78.324 71.6311 77.934 71.4271C77.544 71.2171 77.241 70.9261 77.025 70.5541C76.815 70.1821 76.71 69.7621 76.71 69.2941C76.71 68.8321 76.812 68.4151 77.016 68.0431C77.226 67.6711 77.511 67.3831 77.871 67.1791C78.237 66.9691 78.648 66.8641 79.104 66.8641C79.56 66.8641 79.965 66.9691 80.319 67.1791C80.679 67.3831 80.958 67.6711 81.156 68.0431C81.36 68.4151 81.462 68.8411 81.462 69.3211ZM79.104 67.5931C78.69 67.5931 78.342 67.7191 78.06 67.9711C77.784 68.2231 77.622 68.5531 77.574 68.9611H80.634C80.586 68.5591 80.421 68.2321 80.139 67.9801C79.863 67.7221 79.518 67.5931 79.104 67.5931ZM45.4451 82.6791L44.0861 80.7441C43.9181 80.7561 43.7861 80.7621 43.6901 80.7621H42.1331V82.6791H41.2331V76.3791H43.6901C44.5061 76.3791 45.1481 76.5741 45.6161 76.9641C46.0841 77.3541 46.3181 77.8911 46.3181 78.5751C46.3181 79.0611 46.1981 79.4751 45.9581 79.8171C45.7181 80.1591 45.3761 80.4081 44.9321 80.5641L46.4261 82.6791H45.4451ZM43.6631 79.9971C44.2331 79.9971 44.6681 79.8741 44.9681 79.6281C45.2681 79.3821 45.4181 79.0311 45.4181 78.5751C45.4181 78.1191 45.2681 77.7711 44.9681 77.5311C44.6681 77.2851 44.2331 77.1621 43.6631 77.1621H42.1331V79.9971H43.6631ZM51.9571 80.3211C51.9571 80.3871 51.9511 80.4741 51.9391 80.5821H48.0691C48.1231 81.0021 48.3061 81.3411 48.6181 81.5991C48.9361 81.8511 49.3291 81.9771 49.7971 81.9771C50.3671 81.9771 50.8261 81.7851 51.1741 81.4011L51.6511 81.9591C51.4351 82.2111 51.1651 82.4031 50.8411 82.5351C50.5231 82.6671 50.1661 82.7331 49.7701 82.7331C49.2661 82.7331 48.8191 82.6311 48.4291 82.4271C48.0391 82.2171 47.7361 81.9261 47.5201 81.5541C47.3101 81.1821 47.2051 80.7621 47.2051 80.2941C47.2051 79.8321 47.3071 79.4151 47.5111 79.0431C47.7211 78.6711 48.0061 78.3831 48.3661 78.1791C48.7321 77.9691 49.1431 77.8641 49.5991 77.8641C50.0551 77.8641 50.4601 77.9691 50.8141 78.1791C51.1741 78.3831 51.4531 78.6711 51.6511 79.0431C51.8551 79.4151 51.9571 79.8411 51.9571 80.3211ZM49.5991 78.5931C49.1851 78.5931 48.8371 78.7191 48.5551 78.9711C48.2791 79.2231 48.1171 79.5531 48.0691 79.9611H51.1291C51.0811 79.5591 50.9161 79.2321 50.6341 78.9801C50.3581 78.7221 50.0131 78.5931 49.5991 78.5931ZM57.29 77.9091L55.202 82.6791H54.32L52.232 77.9091H53.132L54.77 81.7341L56.444 77.9091H57.29ZM62.2755 80.3211C62.2755 80.3871 62.2695 80.4741 62.2575 80.5821H58.3875C58.4415 81.0021 58.6245 81.3411 58.9365 81.5991C59.2545 81.8511 59.6475 81.9771 60.1155 81.9771C60.6855 81.9771 61.1445 81.7851 61.4925 81.4011L61.9695 81.9591C61.7535 82.2111 61.4835 82.4031 61.1595 82.5351C60.8415 82.6671 60.4845 82.7331 60.0885 82.7331C59.5845 82.7331 59.1375 82.6311 58.7475 82.4271C58.3575 82.2171 58.0545 81.9261 57.8385 81.5541C57.6285 81.1821 57.5235 80.7621 57.5235 80.2941C57.5235 79.8321 57.6255 79.4151 57.8295 79.0431C58.0395 78.6711 58.3245 78.3831 58.6845 78.1791C59.0505 77.9691 59.4615 77.8641 59.9175 77.8641C60.3735 77.8641 60.7785 77.9691 61.1325 78.1791C61.4925 78.3831 61.7715 78.6711 61.9695 79.0431C62.1735 79.4151 62.2755 79.8411 62.2755 80.3211ZM59.9175 78.5931C59.5035 78.5931 59.1555 78.7191 58.8735 78.9711C58.5975 79.2231 58.4355 79.5531 58.3875 79.9611H61.4475C61.3995 79.5591 61.2345 79.2321 60.9525 78.9801C60.6765 78.7221 60.3315 78.5931 59.9175 78.5931ZM63.4753 77.9091H64.3393V82.6791H63.4753V77.9091ZM63.9073 76.9911C63.7393 76.9911 63.5983 76.9371 63.4843 76.8291C63.3763 76.7211 63.3223 76.5891 63.3223 76.4331C63.3223 76.2771 63.3763 76.1451 63.4843 76.0371C63.5983 75.9231 63.7393 75.8661 63.9073 75.8661C64.0753 75.8661 64.2133 75.9201 64.3213 76.0281C64.4353 76.1301 64.4923 76.2591 64.4923 76.4151C64.4923 76.5771 64.4353 76.7151 64.3213 76.8291C64.2133 76.9371 64.0753 76.9911 63.9073 76.9911ZM73.2069 77.9091L71.4249 82.6791H70.5969L69.2199 79.0611L67.8249 82.6791H66.9969L65.2239 77.9091H66.0429L67.4289 81.7071L68.8689 77.9091H69.5979L71.0109 81.7251L72.4329 77.9091H73.2069ZM75.3901 82.7331C75.0001 82.7331 74.6251 82.6821 74.2651 82.5801C73.9051 82.4721 73.6231 82.3371 73.4191 82.1751L73.7791 81.4911C73.9891 81.6411 74.2441 81.7611 74.5441 81.8511C74.8441 81.9411 75.1471 81.9861 75.4531 81.9861C76.2091 81.9861 76.5871 81.7701 76.5871 81.3381C76.5871 81.1941 76.5361 81.0801 76.4341 80.9961C76.3321 80.9121 76.2031 80.8521 76.0471 80.8161C75.8971 80.7741 75.6811 80.7291 75.3991 80.6811C75.0151 80.6211 74.7001 80.5521 74.4541 80.4741C74.2141 80.3961 74.0071 80.2641 73.8331 80.0781C73.6591 79.8921 73.5721 79.6311 73.5721 79.2951C73.5721 78.8631 73.7521 78.5181 74.1121 78.2601C74.4721 77.9961 74.9551 77.8641 75.5611 77.8641C75.8791 77.8641 76.1971 77.9031 76.5151 77.9811C76.8331 78.0591 77.0941 78.1641 77.2981 78.2961L76.9291 78.9801C76.5391 78.7281 76.0801 78.6021 75.5521 78.6021C75.1861 78.6021 74.9071 78.6621 74.7151 78.7821C74.5231 78.9021 74.4271 79.0611 74.4271 79.2591C74.4271 79.4151 74.4811 79.5381 74.5891 79.6281C74.6971 79.7181 74.8291 79.7841 74.9851 79.8261C75.1471 79.8681 75.3721 79.9161 75.6601 79.9701C76.0441 80.0361 76.3531 80.1081 76.5871 80.1861C76.8271 80.2581 77.0311 80.3841 77.1991 80.5641C77.3671 80.7441 77.4511 80.9961 77.4511 81.3201C77.4511 81.7521 77.2651 82.0971 76.8931 82.3551C76.5271 82.6071 76.0261 82.7331 75.3901 82.7331Z" fill="#6C6C6C"/>
<path d="M43.469 31.0862V51.3862H36.625V36.2482H33.145V31.0862H43.469ZM54.2561 38.2492C57.0981 38.2492 59.1861 38.8486 60.5201 40.0472C61.8734 41.2266 62.5501 42.7829 62.5501 44.7162C62.5501 45.9922 62.2118 47.1716 61.5351 48.2542C60.8778 49.3176 59.8531 50.1876 58.4611 50.8642C57.0691 51.5216 55.3388 51.8502 53.2701 51.8502C51.8394 51.8502 50.4088 51.6956 48.9781 51.3862C47.5668 51.0769 46.3294 50.6226 45.2661 50.0232L47.5861 44.9772C48.4368 45.4606 49.3261 45.8279 50.2541 46.0792C51.2014 46.3306 52.1198 46.4562 53.0091 46.4562C53.8018 46.4562 54.4398 46.3209 54.9231 46.0502C55.4258 45.7602 55.6771 45.3639 55.6771 44.8612C55.6771 44.3779 55.4548 44.0202 55.0101 43.7882C54.5654 43.5369 53.7631 43.4112 52.6031 43.4112H46.7161L47.7311 31.0862H61.2161V36.2482H53.3571L53.2121 38.2492H54.2561ZM72.9942 44.6582L71.4572 46.3692V51.3862H64.7292V31.0862H71.4572V38.4522L78.1272 31.0862H85.5802L77.4602 40.0182L85.9862 51.3862H78.0692L72.9942 44.6582Z" fill="#FF6634"/>
<defs>
<filter id="filter0_d_3:61" x="0" y="0" width="118" height="116" filterUnits="userSpaceOnUse" color-interpolation-filters="sRGB">
<feFlood flood-opacity="0" result="BackgroundImageFix"/>
<feColorMatrix in="SourceAlpha" type="matrix" values="0 0 0 0 0 0 0 0 0 0 0 0 0 0 0 0 0 0 127 0" result="hardAlpha"/>
<feMorphology radius="5" operator="dilate" in="SourceAlpha" result="effect1_dropShadow_3:61"/>
<feOffset dy="4"/>
<feGaussianBlur stdDeviation="5.5"/>
<feComposite in2="hardAlpha" operator="out"/>
<feColorMatrix type="matrix" values="0 0 0 0 0.9375 0 0 0 0 0.9375 0 0 0 0 0.9375 0 0 0 0.25 0"/>
<feBlend mode="normal" in2="BackgroundImageFix" result="effect1_dropShadow_3:61"/>
<feBlend mode="normal" in="SourceGraphic" in2="effect1_dropShadow_3:61" result="shape"/>
</filter>
</defs>
</svg>
