<svg width="90" height="90" viewBox="0 0 90 90" fill="none" xmlns="http://www.w3.org/2000/svg">
<g filter="url(#filter0_d_3:65)">
<rect x="16" y="12" width="58" height="58" rx="6" fill="white"/>
</g>
<circle cx="45.6576" cy="41.6575" r="22.6562" fill="#F7F7F7"/>
<path d="M68.1362 41.4797C68.1362 37.4046 67.0371 33.4049 64.9546 29.902C62.8721 26.3991 59.8834 23.5227 56.3033 21.5759C52.7232 19.6292 48.6843 18.684 44.6122 18.8401C40.54 18.9962 36.5853 20.2477 33.1648 22.4629C29.7442 24.678 26.9845 27.7747 25.1762 31.4267C23.368 35.0787 22.5782 39.1508 22.8902 43.214C23.2021 47.2772 24.6042 51.1811 26.9487 54.5143C29.2932 57.8475 32.4934 60.4866 36.212 62.1536L37.7135 58.8042C34.5974 57.4072 31.9157 55.1957 29.951 52.4025C27.9864 49.6093 26.8114 46.338 26.55 42.9331C26.2886 39.5281 26.9504 36.1158 28.4657 33.0554C29.981 29.9951 32.2936 27.4001 35.16 25.5438C38.0264 23.6876 41.3403 22.6388 44.7528 22.508C48.1652 22.3772 51.5497 23.1692 54.5498 24.8006C57.5498 26.432 60.0544 28.8423 61.7994 31.7777C63.5445 34.7131 64.4656 38.0648 64.4656 41.4797H68.1362Z" fill="#FF6634"/>
<path d="M33.2436 41.4102C33.781 40.8642 34.1623 40.4309 34.3876 40.1102C34.6216 39.7809 34.7386 39.4645 34.7386 39.1612C34.7386 38.8579 34.639 38.6065 34.4396 38.4072C34.2403 38.1992 33.9846 38.0952 33.6726 38.0952C33.1006 38.0952 32.559 38.5025 32.0476 39.3172L30.4226 38.3552C30.8473 37.6965 31.311 37.1982 31.8136 36.8602C32.325 36.5222 32.9706 36.3532 33.7506 36.3532C34.5393 36.3532 35.2283 36.6045 35.8176 37.1072C36.4156 37.6012 36.7146 38.2772 36.7146 39.1352C36.7146 39.6032 36.5933 40.0539 36.3506 40.4872C36.1166 40.9119 35.679 41.4579 35.0376 42.1252L33.3996 43.8282H36.9876V45.6482H30.5786V44.1402L33.2436 41.4102ZM44.2737 36.5612V38.3162H40.6857V39.8372C40.9544 39.7592 41.2621 39.7202 41.6087 39.7202C42.4841 39.7202 43.2381 39.9845 43.8707 40.5132C44.5034 41.0419 44.8197 41.7569 44.8197 42.6582C44.8197 43.5509 44.4904 44.2919 43.8317 44.8812C43.1817 45.4619 42.3757 45.7522 41.4137 45.7522C40.1831 45.7522 39.1561 45.2972 38.3327 44.3872L39.3987 42.9052C39.4767 42.9832 39.5807 43.0785 39.7107 43.1912C39.8407 43.3039 40.0791 43.4555 40.4257 43.6462C40.7724 43.8282 41.1191 43.9192 41.4657 43.9192C41.8124 43.9192 42.1201 43.8152 42.3887 43.6072C42.6574 43.3992 42.7917 43.0915 42.7917 42.6842C42.7917 42.2769 42.6444 41.9649 42.3497 41.7482C42.0637 41.5229 41.6911 41.4102 41.2317 41.4102C40.7724 41.4102 40.2394 41.5749 39.6327 41.9042L38.7877 40.9942V36.5612H44.2737ZM55.0989 36.5612L48.5859 45.6482H46.3499L52.8759 36.5612H55.0989ZM52.9149 44.4002C53.0189 44.5129 53.1489 44.5692 53.3049 44.5692C53.4609 44.5692 53.5909 44.5129 53.6949 44.4002C53.7989 44.2789 53.8509 44.1229 53.8509 43.9322C53.8509 43.7415 53.7989 43.5855 53.6949 43.4642C53.5909 43.3342 53.4609 43.2692 53.3049 43.2692C53.1575 43.2692 53.0319 43.3342 52.9279 43.4642C52.8239 43.5855 52.7719 43.7415 52.7719 43.9322C52.7719 44.1229 52.8195 44.2789 52.9149 44.4002ZM55.2289 43.9322C55.2289 44.4435 55.0469 44.8769 54.6829 45.2322C54.3189 45.5789 53.8595 45.7522 53.3049 45.7522C52.7589 45.7522 52.3039 45.5745 51.9399 45.2192C51.5759 44.8639 51.3939 44.4349 51.3939 43.9322C51.3939 43.4209 51.5759 42.9875 51.9399 42.6322C52.3039 42.2769 52.7589 42.0992 53.3049 42.0992C53.8595 42.0992 54.3189 42.2769 54.6829 42.6322C55.0469 42.9875 55.2289 43.4209 55.2289 43.9322ZM47.7929 39.0832C47.8969 39.1959 48.0269 39.2522 48.1829 39.2522C48.3389 39.2522 48.4689 39.1959 48.5729 39.0832C48.6769 38.9619 48.7289 38.8059 48.7289 38.6152C48.7289 38.4245 48.6769 38.2685 48.5729 38.1472C48.4689 38.0172 48.3389 37.9522 48.1829 37.9522C48.0355 37.9522 47.9099 38.0172 47.8059 38.1472C47.7019 38.2685 47.6499 38.4245 47.6499 38.6152C47.6499 38.8059 47.6975 38.9619 47.7929 39.0832ZM50.1069 38.6152C50.1069 39.1265 49.9249 39.5599 49.5609 39.9152C49.1969 40.2619 48.7375 40.4352 48.1829 40.4352C47.6369 40.4352 47.1819 40.2575 46.8179 39.9022C46.4539 39.5469 46.2719 39.1179 46.2719 38.6152C46.2719 38.1039 46.4539 37.6705 46.8179 37.3152C47.1819 36.9599 47.6369 36.7822 48.1829 36.7822C48.7375 36.7822 49.1969 36.9599 49.5609 37.3152C49.9249 37.6705 50.1069 38.1039 50.1069 38.6152Z" fill="black"/>
<defs>
<filter id="filter0_d_3:65" x="0" y="0" width="90" height="90" filterUnits="userSpaceOnUse" color-interpolation-filters="sRGB">
<feFlood flood-opacity="0" result="BackgroundImageFix"/>
<feColorMatrix in="SourceAlpha" type="matrix" values="0 0 0 0 0 0 0 0 0 0 0 0 0 0 0 0 0 0 127 0" result="hardAlpha"/>
<feMorphology radius="5" operator="dilate" in="SourceAlpha" result="effect1_dropShadow_3:65"/>
<feOffset dy="4"/>
<feGaussianBlur stdDeviation="5.5"/>
<feComposite in2="hardAlpha" operator="out"/>
<feColorMatrix type="matrix" values="0 0 0 0 0.9375 0 0 0 0 0.9375 0 0 0 0 0.9375 0 0 0 0.25 0"/>
<feBlend mode="normal" in2="BackgroundImageFix" result="effect1_dropShadow_3:65"/>
<feBlend mode="normal" in="SourceGraphic" in2="effect1_dropShadow_3:65" result="shape"/>
</filter>
</defs>
</svg>
